<?xml version="1.0" encoding="UTF-8"?>
<svg id="Layer_2" data-name="Layer 2" xmlns="http://www.w3.org/2000/svg" viewBox="0 0 479.75 311.7">
  <defs>
    <style>
      .cls-1 {
        fill: none;
        stroke: #fff;
        stroke-miterlimit: 10;
        stroke-width: .75px;
      }
    </style>
  </defs>
  <g id="Layer_1-2" data-name="Layer 1">
    <g>
      <path class="cls-1" d="M207.27,17.46c.62,5.81,2.14,11.52,3.57,17.16,6.88,27.04,18.97,83.26,36.21,103.53,24.56,28.88,55.34-4.5,64.44-29.26l6.54-17.59c-.02,3.33,1.5,6.66,1.7,9.94.44,7.4-8.51,24.43-12.82,30.9-10.84,16.3-39.02,45.13-58.77,26.48-19.68-18.58-26.96-75.47-34.34-101.99-3.14-11.3-7.21-22.29-10.99-33.38-.44-1.55,1.72-3.74,2.85-4.85.5-.49.48-1.25,1.6-.95Z"/>
      <path class="cls-1" d="M20.67,245.25c.16-.02.65-.86.85-.57l-.06,2.78c-3.4.84-4.8.92-4.34,4.74,1.18,9.69,9.49,29.7,13.1,39.74.32.88.41,1.81.39,2.73l1.19-.8,14.14-46.5,3.68-1.57,16.49,49.44,12.16-40.67c.66-5.18-.58-6.27-5.56-7.12l-.07-2.21h16.19c.22,0,.7-1.02,1.41.3v1.95c-3.78.05-5.77,3.03-7.25,6.11l-17.57,56.83-1,.75-1.72-.6-16.46-46.03-16.81,46.52h-2.72s-19.08-58.45-19.08-58.45c-.62-1.24-2.02-2.92-3.16-3.66-2.13-1.38-4.69-.56-3.95-3.72,6.28-.62,14.08.83,20.17,0Z"/>
      <path class="cls-1" d="M311.23,69.16l3.17,9.07c-10.14,49.69-50.68,88.11-78.99,22.15-11.73-27.33-17.71-57.48-24.43-86.35l4.24-3.38c3.03,18.24,7.41,36.37,12.66,54.09,5.69,19.18,19.96,61.24,45.5,58.88,22.66-2.1,33.27-35.99,37.85-54.46Z"/>
      <path class="cls-1" d="M168.28,301.85c-15.29-16.82-9-50.15,14.32-56.57,30.44-8.38,49.2,24.21,36.25,49.88-9.22,18.28-36.85,21.77-50.57,6.69ZM187.26,247.67c-24.98,3.65-21.95,63.73,8.88,60,24.75-2.99,20.93-64.36-8.88-60Z"/>
      <path class="cls-1" d="M228.29,310v-2.27s6.68-1.27,6.68-1.27c.93-1.7,1.16-3.33,1.29-5.24,1.12-15.78-.85-32.91-.07-48.83-.1-.78-.77-3.1-1.24-3.6-2.02-2.18-7.78.06-6.66-4.12.85.42,1.55.58,2.52.6,17.68.42,40.24-4.37,52.81,10.81,15.72,18.97,1.96,53.92-23.24,53.92h-32.09ZM244.76,248.65v55.95c2.71,1.95,8.25,2.14,11.67,2.01,21.06-.78,26.56-20.09,22.6-37.99-2.01-9.09-10.13-19.97-20.36-19.97h-13.92Z"/>
      <path class="cls-1" d="M117.41,244.28c46.12-5.01,47.47,71.33-.73,66.85-35.37-3.29-36.26-62.83.73-66.85ZM116.81,247.65c-25.01,3.95-21.62,64.32,9.47,60.03,23.71-3.27,20.49-64.75-9.47-60.03Z"/>
      <path class="cls-1" d="M198.75,26.55c3.92,11.19,8.62,22,11.66,33.51,9.65,36.6,10.8,95.5,39.47,122.43,7.41,6.96,16.72,11.62,19.28,22.72l-10.21,2.84c-6.32-9.56-15.18-17.14-21.69-26.58-29.96-43.42-16.49-103.92-41.82-149.67-.9-1.27,2.89-5.57,3.31-5.25Z"/>
      <path class="cls-1" d="M401.56,262.27c-3.52-20.32-30.61-18.78-38.19-1.51-9.79,22.33,4.48,56.67,32.39,43.47,0-8.09,3.66-21.88-8.36-22.13l-.07-2.21,23.86-.57-.03,2.82c-9.65.87-4.15,17.09-5.75,23.79-26.93,12.98-57.77,2.21-55-31.42,1.34-16.27,13.4-29.01,29.82-30.39,4.84-.41,18.13.71,22.61,2.37.79.29.83.54.96,1.31.77,4.3.07,9.3,1.07,13.59-.28,1.15-2.37.97-3.32.88Z"/>
      <path class="cls-1" d="M471.98,246.38l1.14,15.33-3.39.56c-1.62-10.57-10.85-16.02-21.17-14.61-32.3,4.42-22.85,69.55,10.8,58.52,3.96-1.3,4.33-1.89,4.69-6.1.57-6.68.85-18.56-8.48-17.97l-.05-2.78h23.85s-.03,2.82-.03,2.82c-1.22.11-2.91.16-3.92.91-3.8,2.81-1.69,18.26-2.4,22.88-26.5,12.9-57.05,2.35-54.43-30.86,1.16-14.73,10.83-27.11,25.53-30.14,9.64-1.99,18.34.12,27.86,1.44Z"/>
      <path class="cls-1" d="M339.63,244.68v13.35c0,.19,1.06.69-.28,1.37l-1.44-.24c-1.36-3.18-3.03-6.75-6.04-8.71-.5-.32-3.63-1.8-3.89-1.8h-14.49c-.15.42.57.68.57.85v25.28h12.78c.53,0,2.4-1.14,2.84-1.71,1.89-2.41.47-6.81,4.83-5.68v19.31l-2.79-.03c-.55-2.13-1.07-6.34-3.42-7.11-1.73-.56-14.02-1.33-14.8-.81l.09,26.31c.73,2.18,10.43,1.7,12.68,1.5,7.93-.71,13.72-4.47,15.71-12.41l2.76-.07-3.69,15.9h-44.02v-2.26c5.14.13,6.99-2.25,7.4-7.09,1.26-14.85-.92-31.5-.09-46.53-.27-3.72-3.43-7.08-7.32-6.6v-2.84c.2-.28.73.57.85.57h40.9c.17,0,.44-.72.85-.57Z"/>
      <path class="cls-1" d="M222.61,6.1c1.59,16.52,5.47,32.9,10.79,48.58,5.03,14.82,13.97,37.68,28.03,45.81,22.12,12.79,34.12-17.54,38.39-33.94l3.45-16.14,3.92,8.78c-4.12,20.41-15.61,63.63-45.01,51.35-22.1-9.23-33.74-56.24-38.72-77.73-1.86-8.03-2.74-16.3-5.26-24.17l4.42-2.53Z"/>
      <path class="cls-1" d="M231.13,2.13c3.48,22.42,7.47,49.04,21.13,67.77,11.43,15.68,25.86,17.62,34.47-1.68,4.64-10.41,6.21-23,5.77-34.29,1.88,2.58,5.78,6.64,5.7,9.91-.19,7.77-3.21,20.3-5.85,27.72-10.94,30.85-32,26.82-46.16,1.01-11.55-21.07-15.93-45.02-20.18-68.42l5.14-2.02Z"/>
      <path class="cls-1" d="M245.33,210.02l-10.68-.68c-16.61-21.83-24.35-47.08-27.88-74.08-3.83-29.36-.38-57.17-12.47-85.23-.8-1.86-5.15-9.27-5.23-10.17-.14-1.59,2.06-3.69,3.15-4.79,7.6,15.42,12.76,30.92,14.98,48.07,4.53,35.07,3.34,68.76,20.42,101.14,4.95,9.39,11.59,17.24,17.71,25.74Z"/>
      <path class="cls-1" d="M242.49.43c24.54-1.06,37.82,17.89,35.81,41.2-1.27,14.63-11.58,16.72-20.46,5.65-10.31-12.85-11.32-31.47-15.35-46.85ZM256.27,9.65c-2.81,2.8-.68,13.47.4,17.2.91,3.16,6.16,15.97,10.26,14.81,4.94-1.39,2.44-15.05,1.14-18.83-.87-2.53-7.86-17.12-11.8-13.19Z"/>
      <path class="cls-1" d="M186.82,44.16c1.97,5.54,4.88,10.62,6.84,16.18,8.42,23.91,5.61,49.54,7.95,74.42,1.84,19.64,6.12,39.88,14.28,57.86.9,1.98,7.86,14.42,7.3,15.13-2.31-1.08-8.08-1.34-9.59-3.19-1.46-1.78-5.1-10.48-6.18-13.13-6.55-16.17-9.86-33.01-10.92-50.43-1.64-26.8,2.22-56.62-8.43-81.89-.91-2.16-4.53-8.06-4.63-9.61-.08-1.16,1.41-3.56,2.14-4.61.34-.5-.09-1.05,1.26-.74Z"/>
      <path class="cls-1" d="M203.29,199.8l-8.97-6.08c-8.36-20.57-9.2-41.13-8.65-62.94.6-23.5,3.42-48.76-7.37-70.48l2.55-5.91c4.73,7.84,7.33,17.44,8.71,26.5,3.88,25.55.12,52.18,2.94,78.29,1.55,14.34,5.71,27.26,10.78,40.62Z"/>
      <path class="cls-1" d="M239.08.42c3.24,16.31,5.12,34.04,13.54,48.67,4.23,7.34,13.44,18.83,22.78,12.36,9.9-6.85,7.89-34.11,2.88-43.98l3.72,2.81c4.36,4.54,4.98,8.87,5.36,15.08.69,11.11-1.58,35.29-16.15,36.66-14.75,1.38-23.41-18.39-27.59-29.84-4.88-13.37-6.81-27.21-9.08-41.19l4.54-.57Z"/>
      <path class="cls-1" d="M321.45,134.76c-.2,1.43-1.71,4.63-2.35,6.17-8.2,19.47-25.84,32.02-28.65,53.72l-9.06,6.28c-1.24.19-.66-.2-.86-.82-7.75-24.73,26.69-44.87,34.21-65.81l6.71-17.43c-.56,5.55.76,12.53,0,17.89Z"/>
      <path class="cls-1" d="M186.25,186.17c-14.35-13.08-13.78-32.78-13.05-50.83.65-16.06,4.72-33.44,2.76-49.35-.44-3.56-2.8-9.36-2.82-12-.02-2.84,2.06-5.46,2.33-8.24.78-.17.61.59.84,1.13,9.04,21.7,4,39.53,3.11,61.61-.78,19.42.78,39.23,6.83,57.68Z"/>
      <path class="cls-1" d="M168.64,154.36l-2-6.79c-4.68-21.69-2.43-44.31,4-65.35,1.93,10.59,1.09,21.41.28,32.1-.53,6.97-1.93,14.04-2.26,21.03-.3,6.31.22,12.71-.01,19.02Z"/>
      <path class="cls-1" d="M300.99,185.6c-1.04.14-.46-1.18-.32-1.74,2.18-8.18,9.17-16.84,14.52-23.25-2.67,9.45-8.61,17.16-14.2,24.99Z"/>
    </g>
  </g>
</svg>