<?xml version="1.0" encoding="UTF-8"?>
<svg id="Layer_2" data-name="Layer 2" xmlns="http://www.w3.org/2000/svg" viewBox="0 0 245.88 159.61">
  <defs>
    <style>
      .cls-1 {
        fill: #ca922b;
      }
    </style>
  </defs>
  <g id="Layer_1-2" data-name="Layer 1">
    <g>
      <path class="cls-1" d="M106.21,8.77c.32,2.98,1.1,5.91,1.83,8.81,3.53,13.88,9.74,42.74,18.59,53.14,12.61,14.82,28.41-2.31,33.08-15.02l3.36-9.03c-.01,1.71.77,3.42.87,5.1.23,3.8-4.37,12.54-6.58,15.86-5.56,8.37-20.03,23.17-30.17,13.59-10.1-9.54-13.84-38.74-17.63-52.36-1.61-5.8-3.7-11.44-5.64-17.13-.23-.8.88-1.92,1.46-2.49.26-.25.24-.64.82-.49Z"/>
      <path class="cls-1" d="M10.42,125.7c.08-.01.33-.44.43-.29l-.03,1.42c-1.75.43-2.46.47-2.23,2.43.6,4.98,4.87,15.24,6.73,20.4.16.45.21.93.2,1.4l.61-.41,7.26-23.87,1.89-.81,8.46,25.38,6.24-20.87c.34-2.66-.3-3.22-2.86-3.65l-.03-1.13h8.31c.11,0,.36-.52.72.15v1c-1.94.03-2.96,1.56-3.72,3.13l-9.02,29.17-.52.38-.88-.31-8.45-23.63-8.63,23.88h-1.4s-9.8-30.01-9.8-30.01c-.32-.64-1.03-1.5-1.62-1.88-1.09-.71-2.41-.29-2.03-1.91,3.22-.32,7.23.43,10.35,0Z"/>
      <path class="cls-1" d="M159.57,35.3l1.63,4.66c-5.21,25.51-26.02,45.23-40.55,11.37-6.02-14.03-9.09-29.5-12.54-44.33l2.18-1.74c1.56,9.36,3.8,18.67,6.5,27.76,2.92,9.85,10.24,31.44,23.36,30.23,11.63-1.08,17.08-18.48,19.43-27.95Z"/>
      <path class="cls-1" d="M86.19,154.75c-7.85-8.63-4.62-25.75,7.35-29.04,15.63-4.3,25.25,12.43,18.61,25.61-4.73,9.39-18.92,11.17-25.96,3.43ZM95.93,126.94c-12.82,1.88-11.27,32.71,4.56,30.8,12.71-1.53,10.74-33.04-4.56-30.8Z"/>
      <path class="cls-1" d="M117,158.94v-1.17s3.43-.65,3.43-.65c.48-.87.59-1.71.66-2.69.58-8.1-.43-16.89-.04-25.06-.05-.4-.4-1.59-.63-1.85-1.03-1.12-3.99.03-3.42-2.12.44.21.8.3,1.29.31,9.07.22,20.65-2.24,27.11,5.55,8.07,9.74,1.01,27.68-11.93,27.68h-16.48ZM125.45,127.45v28.72c1.39,1,4.24,1.1,5.99,1.03,10.81-.4,13.64-10.31,11.6-19.5-1.03-4.67-5.2-10.25-10.45-10.25h-7.14Z"/>
      <path class="cls-1" d="M60.08,125.2c23.67-2.57,24.37,36.62-.37,34.32-18.16-1.69-18.61-32.25.37-34.32ZM59.77,126.93c-12.84,2.03-11.1,33.02,4.86,30.81,12.17-1.68,10.52-33.24-4.86-30.81Z"/>
      <path class="cls-1" d="M101.83,13.43c2.01,5.75,4.43,11.29,5.98,17.2,4.95,18.79,5.54,49.02,20.26,62.85,3.81,3.57,8.58,5.97,9.9,11.66l-5.24,1.46c-3.24-4.91-7.79-8.8-11.13-13.65-15.38-22.29-8.47-53.34-21.47-76.83-.46-.65,1.49-2.86,1.7-2.69Z"/>
      <path class="cls-1" d="M205.94,134.43c-1.81-10.43-15.71-9.64-19.6-.78-5.03,11.46,2.3,29.09,16.63,22.32,0-4.15,1.88-11.23-4.29-11.36l-.04-1.13,12.25-.29v1.45c-4.97.45-2.14,8.77-2.97,12.21-13.82,6.66-29.66,1.13-28.23-16.13.69-8.35,6.88-14.89,15.31-15.6,2.49-.21,9.3.36,11.6,1.22.41.15.42.28.5.67.4,2.21.03,4.77.55,6.98-.14.59-1.22.5-1.71.45Z"/>
      <path class="cls-1" d="M242.09,126.28l.58,7.87-1.74.29c-.83-5.43-5.57-8.22-10.87-7.5-16.58,2.27-11.73,35.7,5.55,30.04,2.03-.67,2.22-.97,2.41-3.13.29-3.43.44-9.53-4.35-9.23l-.03-1.43h12.25s-.01,1.45-.01,1.45c-.63.06-1.49.08-2.01.47-1.95,1.44-.87,9.37-1.23,11.75-13.6,6.62-29.29,1.2-27.94-15.84.6-7.56,5.56-13.91,13.11-15.47,4.95-1.02,9.41.06,14.3.74Z"/>
      <path class="cls-1" d="M174.15,125.4v6.85c0,.1.54.35-.15.7l-.74-.12c-.7-1.63-1.56-3.46-3.1-4.47-.25-.17-1.87-.92-1.99-.92h-7.44c-.08.21.29.35.29.44v12.98h6.56c.27,0,1.23-.59,1.46-.88.97-1.24.24-3.5,2.48-2.91v9.91l-1.43-.02c-.28-1.09-.55-3.26-1.76-3.65-.89-.29-7.2-.68-7.6-.42l.05,13.51c.37,1.12,5.35.88,6.51.77,4.07-.36,7.04-2.3,8.06-6.37l1.42-.04-1.9,8.16h-22.6v-1.16c2.64.07,3.59-1.15,3.8-3.64.65-7.62-.47-16.17-.04-23.89-.14-1.91-1.76-3.64-3.76-3.39v-1.46c.1-.15.38.29.44.29h20.99c.09,0,.22-.37.44-.29Z"/>
      <path class="cls-1" d="M114.08,2.94c.82,8.48,2.81,16.89,5.54,24.94,2.58,7.61,7.17,19.34,14.39,23.52,11.36,6.56,17.51-9.01,19.71-17.42l1.77-8.29,2.01,4.51c-2.11,10.48-8.01,32.66-23.11,26.36-11.35-4.74-17.32-28.87-19.87-39.9-.95-4.12-1.41-8.37-2.7-12.41l2.27-1.3Z"/>
      <path class="cls-1" d="M118.45.9c1.79,11.51,3.84,25.17,10.84,34.79,5.87,8.05,13.27,9.04,17.69-.86,2.38-5.34,3.19-11.81,2.96-17.6.97,1.33,2.97,3.41,2.93,5.09-.1,3.99-1.65,10.42-3,14.23-5.62,15.83-16.43,13.77-23.7.52-5.93-10.81-8.18-23.11-10.36-35.12l2.64-1.04Z"/>
      <path class="cls-1" d="M125.74,107.61l-5.48-.35c-8.53-11.2-12.5-24.17-14.31-38.03-1.97-15.07-.2-29.35-6.4-43.75-.41-.96-2.64-4.76-2.68-5.22-.07-.82,1.06-1.89,1.61-2.46,3.9,7.91,6.55,15.87,7.69,24.68,2.33,18,1.72,35.3,10.48,51.92,2.54,4.82,5.95,8.85,9.09,13.21Z"/>
      <path class="cls-1" d="M124.29.02c12.6-.55,19.42,9.18,18.38,21.15-.65,7.51-5.94,8.58-10.5,2.9-5.29-6.6-5.81-16.16-7.88-24.05ZM131.36,4.76c-1.44,1.44-.35,6.92.21,8.83.47,1.62,3.16,8.2,5.27,7.6,2.54-.72,1.25-7.72.58-9.66-.45-1.3-4.04-8.79-6.06-6.77Z"/>
      <path class="cls-1" d="M95.71,22.47c1.01,2.84,2.5,5.45,3.51,8.3,4.32,12.27,2.88,25.43,4.08,38.2.95,10.08,3.14,20.47,7.33,29.7.46,1.02,4.04,7.4,3.75,7.77-1.19-.56-4.15-.69-4.92-1.64s-2.62-5.38-3.17-6.74c-3.36-8.3-5.06-16.94-5.61-25.89-.84-13.76,1.14-29.06-4.33-42.04-.47-1.11-2.33-4.14-2.38-4.93-.04-.59.72-1.83,1.1-2.37.18-.26-.05-.54.65-.38Z"/>
      <path class="cls-1" d="M104.16,102.37l-4.6-3.12c-4.29-10.56-4.72-21.12-4.44-32.31.31-12.06,1.75-25.03-3.78-36.18l1.31-3.03c2.43,4.02,3.76,8.95,4.47,13.6,1.99,13.11.06,26.78,1.51,40.19.8,7.36,2.93,14,5.54,20.85Z"/>
      <path class="cls-1" d="M122.53.02c1.67,8.37,2.63,17.47,6.95,24.98,2.17,3.77,6.9,9.66,11.69,6.35,5.08-3.51,4.05-17.51,1.48-22.58l1.91,1.44c2.24,2.33,2.55,4.55,2.75,7.74.36,5.7-.81,18.12-8.29,18.82-7.57.71-12.02-9.44-14.16-15.32-2.51-6.86-3.5-13.97-4.66-21.15l2.33-.29Z"/>
      <path class="cls-1" d="M164.82,68.98c-.1.74-.88,2.38-1.21,3.17-4.21,9.99-13.27,16.44-14.7,27.58l-4.65,3.23c-.64.1-.34-.1-.44-.42-3.98-12.7,13.7-23.03,17.56-33.78l3.44-8.95c-.29,2.85.39,6.43,0,9.19Z"/>
      <path class="cls-1" d="M95.42,95.37c-7.37-6.71-7.08-16.83-6.7-26.09.33-8.24,2.43-17.16,1.42-25.33-.23-1.83-1.44-4.81-1.45-6.16,0-1.46,1.06-2.8,1.2-4.23.4-.09.31.3.43.58,4.64,11.14,2.05,20.29,1.6,31.63-.4,9.97.4,20.14,3.51,29.61Z"/>
      <path class="cls-1" d="M86.38,79.04l-1.03-3.49c-2.4-11.13-1.25-22.74,2.05-33.55.99,5.43.56,10.99.14,16.48-.27,3.58-.99,7.21-1.16,10.79-.16,3.24.11,6.52,0,9.76Z"/>
      <path class="cls-1" d="M154.32,95.08c-.53.07-.24-.61-.16-.89,1.12-4.2,4.71-8.64,7.45-11.94-1.37,4.85-4.42,8.81-7.29,12.83Z"/>
    </g>
  </g>
</svg>