<?xml version="1.0" encoding="UTF-8"?>
<svg id="Layer_2" data-name="Layer 2" xmlns="http://www.w3.org/2000/svg" viewBox="0 0 250 143.51">
  <defs>
    <style>
      .cls-1 {
        fill: #fff;
      }
    </style>
  </defs>
  <g id="Layer_1-2" data-name="Layer 1">
    <g>
      <path class="cls-1" d="M249.11,126.22h-6.95c-.24,0-.46.09-.63.26-.17.17-.26.4-.26.64l.04,5.45c0,.59-.28,1.14-.76,1.48-.37.26-.77.47-1.18.63-.64.24-1.36.42-2.14.51-.76.09-1.64.14-2.62.14-1.41,0-2.71-.24-3.86-.7-1.16-.47-2.17-1.17-2.98-2.07-.8-.9-1.43-1.98-1.86-3.23-.42-1.24-.64-2.65-.64-4.19s.21-2.84.61-4.05c.41-1.23,1.01-2.31,1.8-3.2.79-.9,1.74-1.61,2.83-2.12,1.09-.51,2.32-.76,3.67-.76,1.44,0,2.68.2,3.7.59,1.02.4,1.89.96,2.59,1.68.41.43.8.9,1.15,1.42.17.25.45.4.75.4.15,0,.29-.04.42-.11l5.86-3.26c.42-.24.58-.78.36-1.21-.77-1.46-1.79-2.75-3.03-3.82-1.55-1.35-3.33-2.38-5.29-3.08-1.96-.69-4.01-1.05-6.09-1.05-2.64,0-5.12.47-7.38,1.41-2.26.94-4.25,2.26-5.94,3.92-1.68,1.66-3,3.63-3.92,5.85-.92,2.22-1.38,4.65-1.38,7.22,0,.16.01.32.02.48,0,.11.01.21.02.32,0,.12-.04.24-.12.33-.08.09-.2.14-.32.14h-6.16c-.24,0-.46.09-.63.26-.17.17-.26.4-.26.64l.04,5.45c0,.59-.28,1.14-.76,1.48-.37.26-.77.47-1.18.63-.64.25-1.36.42-2.14.51-.76.09-1.64.14-2.62.14-1.41,0-2.71-.24-3.86-.7-1.16-.47-2.17-1.17-2.98-2.07-.8-.9-1.43-1.98-1.86-3.23-.42-1.24-.64-2.64-.64-4.19s.21-2.84.61-4.05c.41-1.23,1.01-2.31,1.8-3.2.79-.9,1.74-1.61,2.83-2.12,1.09-.51,2.32-.76,3.67-.76,1.44,0,2.68.2,3.7.59,1.02.4,1.89.96,2.59,1.68.41.42.8.9,1.15,1.42.17.25.45.4.75.4.15,0,.29-.04.42-.11l5.86-3.26c.42-.24.58-.78.36-1.21-.77-1.46-1.79-2.75-3.03-3.82-1.55-1.35-3.33-2.38-5.29-3.08-1.96-.69-4.01-1.05-6.09-1.05-2.64,0-5.12.47-7.38,1.41-2.26.94-4.25,2.26-5.94,3.92-1.68,1.66-3,3.63-3.92,5.85-.92,2.22-1.38,4.65-1.38,7.22s.47,5,1.41,7.22c.24.58.54,1.17.9,1.82.08.14.07.31,0,.44-.08.14-.23.22-.38.22h-22.75c-.98,0-1.78-.8-1.78-1.78v-3.48c0-.25.2-.45.45-.45h17.9c.49,0,.89-.4.89-.89v-6.16c0-.49-.4-.89-.89-.89h-17.9c-.25,0-.45-.2-.45-.45v-3.48c0-.98.8-1.78,1.78-1.78h18.64c.49,0,.89-.4.89-.89v-6.16c0-.49-.4-.89-.89-.89h-21.32c-2.89,0-4.98.71-6.23,2.1-1.26,1.41-1.89,3.34-1.89,5.75v3.94c0,.22-.16.41-.38.44-.02,0-.05,0-.07,0-.19,0-.37-.12-.43-.31-.39-1.26-.92-2.44-1.56-3.49-1.59-2.63-3.85-4.71-6.7-6.18-2.87-1.48-6.28-2.23-10.16-2.23h-12.96c-.49,0-.89.4-.89.89v9.17c0,.21-.15.4-.36.44-.03,0-.06,0-.09,0-.18,0-.34-.11-.41-.27-.92-2.2-2.22-4.12-3.86-5.73-1.68-1.65-3.67-2.95-5.91-3.87-2.24-.92-4.73-1.39-7.41-1.39s-5.13.47-7.38,1.39c-2.26.92-4.25,2.22-5.93,3.87-1.39,1.36-2.55,3-3.45,4.85-.07.15-.23.25-.4.25h0c-.17,0-.33-.1-.4-.25-.9-1.86-2.06-3.49-3.45-4.85-1.68-1.65-3.67-2.95-5.91-3.87-2.24-.92-4.73-1.39-7.41-1.39s-5.13.47-7.38,1.39c-2.26.92-4.25,2.22-5.93,3.87-.9.88-1.73,1.91-2.45,3.05-.08.13-.23.21-.38.21-.06,0-.11-.01-.17-.03-.2-.08-.31-.29-.27-.51l1.3-6.14c.06-.26,0-.54-.18-.75-.17-.21-.42-.33-.69-.33h-7.14c-.43,0-.8.31-.88.73l-4.47,23.65c-.04.21-.22.36-.43.36,0,0,0,0,0,0-.21,0-.39-.14-.44-.35l-4.05-18c-.55-2.54-1.43-4.4-2.63-5.53-1.19-1.12-2.66-1.67-4.49-1.67s-3.3.56-4.46,1.67c-1.18,1.13-2.07,2.99-2.66,5.53l-4.05,18c-.05.2-.23.35-.44.35,0,0,0,0,0,0-.21,0-.39-.16-.43-.36l-4.47-23.65c-.08-.42-.45-.73-.88-.73H.89c-.27,0-.52.12-.69.33-.17.21-.24.48-.18.75l6.08,28.64c.44,2.07,1.31,3.67,2.58,4.76,1.27,1.08,2.85,1.63,4.69,1.63,1.67,0,3.19-.53,4.51-1.59,1.32-1.06,2.22-2.53,2.66-4.39l4.44-19.54c.05-.2.23-.35.44-.35s.39.14.44.35l4.44,19.55c.44,1.85,1.34,3.32,2.68,4.38,1.34,1.06,2.85,1.59,4.49,1.59,1.84,0,3.42-.55,4.69-1.63,1.27-1.09,2.14-2.69,2.58-4.76l2.03-9.57c.04-.21.23-.35.44-.35,0,0,.01,0,.02,0,.22,0,.4.18.42.39.21,1.71.62,3.32,1.21,4.77.92,2.24,2.24,4.2,3.92,5.85,1.68,1.65,3.68,2.95,5.93,3.87,2.26.92,4.74,1.39,7.38,1.39s5.17-.47,7.41-1.39c2.24-.92,4.23-2.22,5.91-3.87,1.39-1.36,2.55-3,3.45-4.85.07-.15.23-.25.4-.25.17,0,.33.1.4.25.89,1.86,2.05,3.49,3.45,4.85,1.68,1.65,3.68,2.95,5.93,3.87,2.26.92,4.74,1.39,7.38,1.39s5.17-.47,7.41-1.39c2.24-.92,4.23-2.22,5.91-3.87,1.64-1.61,2.94-3.54,3.86-5.73.07-.17.23-.27.41-.27.03,0,.06,0,.09,0,.21.04.36.22.36.44v8.45c0,.86.7,1.57,1.57,1.57h12.28c2.83,0,5.45-.42,7.81-1.23,2.34-.82,4.39-2,6.09-3.53,1.69-1.52,3.03-3.37,3.96-5.5.2-.45.38-.95.57-1.52.06-.19.23-.31.42-.31.02,0,.05,0,.07,0,.22.03.38.22.38.44v3.76c0,2.41.64,4.35,1.89,5.75,1.24,1.39,3.34,2.1,6.23,2.1h32.81c.39,0,.73-.25.84-.62.04-.12.13-.22.24-.27.06-.03.12-.04.18-.04s.13.01.18.04c.08.04.16.07.24.11.09.05.18.09.28.13,2.24.94,4.71,1.41,7.35,1.41,2.37,0,4.59-.31,6.59-.92,2-.61,3.77-1.46,5.28-2.53,1.37-.98,2.51-2.1,3.38-3.34.1-.14.15-.32.15-.52v-2.19c0-.21.14-.38.34-.43.04,0,.07-.01.11-.01.16,0,.32.09.39.24.86,1.63,1.95,3.1,3.24,4.37,1.68,1.67,3.67,2.98,5.91,3.92,2.24.94,4.71,1.41,7.35,1.41,2.37,0,4.59-.31,6.59-.92,2-.61,3.77-1.46,5.28-2.53,1.37-.98,2.51-2.1,3.38-3.34.1-.15.15-.32.15-.52v-8.95c0-.49-.4-.89-.89-.89ZM74.74,128.93c-.47,1.21-1.13,2.28-1.97,3.17-.84.9-1.84,1.61-2.98,2.11-1.14.51-2.38.76-3.69.76s-2.55-.26-3.69-.76c-1.14-.5-2.14-1.21-2.98-2.11-.84-.9-1.5-1.96-1.96-3.17-.46-1.2-.7-2.51-.7-3.88s.24-2.72.7-3.91c.46-1.19,1.12-2.25,1.96-3.14.84-.9,1.85-1.61,2.98-2.11,1.14-.5,2.38-.76,3.69-.76s2.55.26,3.69.76c1.14.5,2.14,1.21,2.98,2.11.84.89,1.5,1.95,1.96,3.14.46,1.19.7,2.51.7,3.91s-.24,2.68-.7,3.88ZM109.07,128.93c-.47,1.21-1.13,2.28-1.97,3.17-.84.9-1.84,1.61-2.98,2.11-1.14.51-2.38.76-3.69.76s-2.55-.26-3.69-.76c-1.14-.5-2.14-1.21-2.98-2.11-.84-.9-1.5-1.96-1.96-3.17-.46-1.2-.7-2.51-.7-3.88s.24-2.72.7-3.91c.46-1.19,1.13-2.25,1.96-3.14.84-.9,1.85-1.61,2.98-2.11,1.14-.5,2.38-.76,3.69-.76s2.55.26,3.69.76c1.14.5,2.14,1.21,2.98,2.11.84.89,1.5,1.95,1.96,3.14.46,1.19.7,2.51.7,3.91s-.24,2.68-.7,3.88ZM141.6,129.04c-.47,1.18-1.15,2.21-2.03,3.05-.88.84-1.94,1.5-3.15,1.94-1.21.44-2.58.67-4.09.67h-2.38c-1.36,0-2.46-1.1-2.46-2.46v-14.18c0-1.36,1.1-2.46,2.46-2.46h2.38c1.99,0,3.76.41,5.24,1.2,1.5.8,2.67,1.93,3.49,3.36.82,1.42,1.24,3.1,1.24,4.99,0,1.41-.24,2.71-.7,3.89Z"/>
      <path class="cls-1" d="M159.3,64.65c-.36.9-.74,1.8-1.12,2.69-1.27,3-2.58,6.11-3.31,9.33-.26,1.18-.42,2.4-.47,3.63,0,.1.06.2.16.22.02,0,.04,0,.06,0,.08,0,.15-.04.19-.11,2.79-4.79,4.49-10.21,4.92-15.68,0-.11-.06-.21-.17-.23-.11-.03-.22.03-.26.13Z"/>
      <path class="cls-1" d="M108.35,64.86c.24,11.07.49,22.52,5.13,30.91.03.05.07.08.12.1,1.77.67,3.59,1.22,5.43,1.62.02,0,.03,0,.05,0,.08,0,.15-.04.19-.11.05-.08.04-.18-.02-.26-3.29-3.99-5.46-9.23-6.29-15.17-1.03-5.99-1.44-12.21-1.83-18.23-.43-6.55-.88-13.32-2.12-19.85,0,0,0,0,0,0-.77-3.44-2.01-6.8-3.21-10.05-.7-1.91-1.43-3.89-2.06-5.86-.84-2.47-1.66-5.14-2.58-8.42-.02-.09-.1-.15-.19-.16-.09-.01-.18.03-.22.11-.34.6-.68,1.21-1.01,1.82-.03.05-.03.11-.02.17,2,6.61,3.83,12.33,5.6,17.49,2.63,7.49,2.83,16.84,3.03,25.88Z"/>
      <path class="cls-1" d="M104.02,66.25c-.17,8.37-.35,17.03,1.6,25.34.01.05.04.1.09.13,1.11.77,2.27,1.48,3.45,2.11.03.02.07.03.11.03.05,0,.11-.02.15-.06.07-.06.09-.17.05-.25-1.62-3.83-2.44-8.16-2.49-13.23-.3-4.57-.31-9.19-.33-13.67-.02-7.53-.04-15.32-1.43-23,0,0,0,0,0,0-.98-4.83-2.56-9.59-4.1-14.19-.34-1.02-.68-2.05-1.02-3.07-.34-1-.67-2-.99-3.01-.03-.09-.11-.15-.2-.15-.1-.01-.18.04-.22.12-.31.62-.6,1.25-.89,1.88-.02.05-.03.11-.01.16,2.15,6.72,3.74,12.22,5.01,17.3,1.54,7.74,1.38,15.78,1.22,23.56Z"/>
      <path class="cls-1" d="M91.28,69.66s.01,0,.02,0c.11-.01.2-.1.2-.21.04-1.27.09-2.54.14-3.81.21-5.65.43-11.48.17-17.2,0-.23-.02-.46-.04-.68-.01-.16-.02-.32-.03-.48,0-.12-.1-.21-.21-.21-.11-.01-.21.08-.23.19-.76,4.96-1.11,10.03-1.04,15.08.02,2.34.29,4.75.81,7.16.02.1.11.18.22.18Z"/>
      <path class="cls-1" d="M92.84,64.86c-.11,3.12-.22,6.35-.27,9.81,0,.03,0,.06.01.08.49,1.3,1.06,2.59,1.69,3.84.04.08.12.12.2.12.02,0,.03,0,.05,0,.1-.02.17-.11.17-.22.03-3.64.17-7.37.31-10.98.39-9.98.78-20.29-1.19-30.12-.02-.1-.11-.18-.21-.18-.09.01-.2.06-.22.16-.4,1.46-.76,2.92-1.07,4.33,0,.03,0,.05,0,.08,1.05,7.71.81,14.83.52,23.07Z"/>
      <path class="cls-1" d="M99.87,67.9c-.22,5.04-.45,10.24-.23,15.35.03,1.03.12,2.14.25,3.38,0,.05.03.09.06.13.79.85,1.66,1.7,2.6,2.52.04.04.09.06.15.06.04,0,.08,0,.11-.03.08-.05.13-.14.11-.23-1.11-6.09-.95-12.45-.72-17.93v-.22c.49-11,.98-22.38-1.9-33.26-.83-3.04-1.84-6.33-3.09-10.06-.03-.09-.11-.15-.2-.15-.1,0-.18.05-.21.14-.3.71-.59,1.43-.86,2.15-.02.05-.02.1,0,.15,1.88,5.87,3.06,11.1,3.61,15.99,1.01,7.3.68,14.79.36,22.03Z"/>
      <path class="cls-1" d="M96.19,67.68c-.17,4.51-.35,9.17-.31,13.69,0,.04.01.08.03.12.58.92,1.23,1.86,1.95,2.78.04.06.11.09.18.09.03,0,.05,0,.08-.01.09-.03.15-.12.15-.22-.27-4.94.02-10.02.3-14.94.25-4.44.51-9.03.35-13.45-.11-8.91-1.23-16.96-3.36-23.92-.03-.09-.11-.16-.21-.16-.09,0-.18.06-.22.15-.32.91-.63,1.83-.91,2.73-.01.04-.01.08,0,.12,1.34,5.16,2.04,9.89,2.14,14.46.31,6.15.06,12.46-.17,18.57Z"/>
      <path class="cls-1" d="M149.75,70.39c-2.17,3.49-4.42,7.09-5.95,10.93-1.68,4.13-1.91,7.61-.71,10.96.02.06.07.11.14.14.02,0,.05.01.07.01.04,0,.08-.01.12-.04.83-.53,1.55-1.04,2.21-1.54,1.71-1.29,3.33-2.79,4.84-4.45.05-.05.07-.12.05-.19-.34-2.11-.35-4.14-.02-6.04.57-3.88,2.4-7.48,4.16-10.96.89-1.75,1.8-3.56,2.56-5.39.89-2.07,1.72-4.25,2.52-6.68,0-.03.01-.05.01-.08-.1-2.33-.3-4.69-.58-7.04-.01-.11-.1-.19-.21-.2-.11,0-.2.06-.23.16-.97,3.59-2.02,6.83-3.22,9.91-1.51,3.66-3.68,7.13-5.77,10.49Z"/>
      <path class="cls-1" d="M110.08,42.98c1.41,5.93,2.13,12.11,2.82,18.08.94,8.07,1.91,16.42,4.6,24.31h0c1,2.82,2.3,5.26,3.88,7.27,1.33,1.71,2.94,3.22,4.51,4.68l.81.76s.1.06.15.06c0,0,.01,0,.01,0,.38-.03.76-.05,1.15-.1,3.2-.43,6.35-1.27,9.36-2.5.06-.03.11-.08.13-.14.02-.06,0-.14-.03-.19-.34-.49-.67-.92-1.04-1.32-1.51-1.48-3.48-2.55-5.37-3.58-2.4-1.31-4.88-2.66-6.49-4.86-2.93-3.59-4.56-8.04-5.64-11.53-1.72-5.61-2.74-11.47-3.73-17.14-1.43-8.21-2.92-16.7-6.54-24.53-2.2-5.36-3.98-10.85-5.29-16.3-.02-.09-.09-.15-.18-.17-.09-.01-.18.02-.22.1-.4.61-.79,1.23-1.17,1.84-.03.05-.04.12-.02.18,1.24,4.44,2.81,8.86,4.33,13.13,1.38,3.9,2.82,7.93,3.99,11.96Z"/>
      <path class="cls-1" d="M110.35,33.51c.67,1.64,1.36,3.34,2,5.03,0,0,0,0,0,0,1.81,4.52,2.88,9.36,3.93,14.04,1.42,6.37,2.89,12.95,6.21,18.83,2.76,4.68,6.11,7.04,9.99,7.04.49,0,.98-.04,1.49-.11,10.08-1.49,19.89-17.37,21.86-25.51l.07-.21c.68-2.34,1.55-5.42,2.34-8.55,0-.03,0-.06,0-.1-.34-1.77-.72-3.5-1.14-5.14-.03-.1-.13-.18-.22-.17-.1,0-.19.07-.21.17-.79,3.54-1.82,7.14-3.05,10.72-1.93,6.63-6.81,18.17-17.71,21.05-11.42,1.71-14.76-10.79-17.44-20.83-.77-2.89-1.5-5.62-2.35-7.74-.98-2.92-2.2-5.78-3.37-8.55-1.35-3.18-2.75-6.47-3.83-9.93-1.07-3.45-1.97-7.2-2.76-11.45-.02-.09-.08-.16-.17-.18-.08-.02-.17.01-.23.08-.53.68-1,1.29-1.43,1.89-.04.05-.05.11-.04.17.38,1.89.76,3.57,1.14,5.13,1.13,4.92,3.07,9.69,4.93,14.29Z"/>
      <path class="cls-1" d="M118.99,45.46c1.29,3.75,2.61,7.64,4.36,11.26,2.37,5.34,6.19,8.44,10.77,8.72.23.01.45.02.68.02,4.75,0,9.43-3.09,12.62-8.39,2.3-3.84,3.86-8.22,5.23-12.08l.07-.21c1.27-3.75,2.24-7.44,2.89-10.98,0-.04,0-.07,0-.11-.47-1.44-1-2.9-1.61-4.47-.04-.1-.14-.16-.24-.14-.1.01-.18.09-.19.2-.54,4.63-1.72,9.41-3.5,14.21l-.39.98c-2.04,5.09-4.34,10.85-9.06,14-3.07,1.69-5.79,2.06-8.31,1.13-5.94-2.18-9.45-11.35-12.28-18.72-1.16-3.01-2.25-5.86-3.35-7.85-3.62-7.09-5.97-15.17-7.19-24.7-.01-.08-.07-.16-.15-.18-.08-.03-.17,0-.23.05-.6.61-1.18,1.23-1.7,1.83-.04.05-.06.11-.05.18,1.34,10.1,5.23,19.61,8.86,27.57,1.02,2.53,1.92,5.15,2.79,7.68Z"/>
      <path class="cls-1" d="M119.71,35.43c1.01,2.1,2.06,4.27,3.02,6.42,3.72,8.81,8.1,13.45,12.69,13.45.06,0,.12,0,.17,0,4.91-.12,9.57-5.59,13.14-15.38l.07-.2c1.73-4.63,2.73-9.85,2.97-15.52,0-.04,0-.07-.02-.11-.71-1.48-1.47-2.94-2.25-4.33-.05-.09-.15-.13-.25-.11-.1.03-.17.12-.17.22.11,10.23-1.79,17.79-5.96,23.78-1.94,2.85-3.95,4.51-6.15,5.09-4.37,1.18-7.87-2.62-10.04-6.01-3.85-6.04-6.87-12.45-9.31-17.93-2.48-5.67-3.85-12.2-4.17-19.96,0-.08-.05-.16-.13-.19-.07-.03-.16-.03-.23.02-.69.52-1.35,1.07-1.97,1.61-.05.05-.08.12-.07.19.47,5.49,1.38,10.47,2.77,15.23,1.54,4.72,3.76,9.3,5.9,13.73Z"/>
      <path class="cls-1" d="M123.7,32.8c.24.38.49.78.75,1.19,2.46,3.96,5.75,9.26,10.89,9.26.5,0,1.03-.05,1.57-.16,7.35-2.66,9.99-12.81,10.03-20.69v-.24c-.02-.43-.04-.97-.05-1.59-.04-1.5-.1-3.56-.33-5.51,0-.04-.02-.07-.04-.1-1.1-1.61-2.27-3.13-3.46-4.52-.06-.07-.16-.1-.25-.06-.09.03-.15.12-.14.21.01.74.16,1.58.32,2.47.14.78.28,1.59.34,2.38.53,4.06.52,7.51-.03,10.56-.46,3.77-2.67,8.46-5.99,10.12-1.84.91-3.79.79-5.79-.38-6.07-4.18-9.16-11.45-11.59-18.68-1.34-4.82-1.77-10-1.28-15.4,0-.08-.03-.16-.09-.2-.06-.05-.15-.05-.22-.02-.85.38-1.7.83-2.5,1.33-.04.03-.08.05-.12.08l-.09.06c-.06.04-.1.11-.1.19-.05,4.97.4,9.53,1.37,13.95,1.21,5.61,3.99,10.87,6.82,15.74Z"/>
      <path class="cls-1" d="M130.5,29.39s.02.01.03.02c1.28.74,2.48,1.11,3.58,1.11.96,0,1.86-.28,2.67-.85,3.37-2.34,4.3-8.72,3.68-12.41l-.02-.23c-.13-.81-.24-1.63-.35-2.45-.47-3.5-.95-7.13-3.02-9.84-.01-.02-.03-.03-.04-.04-1.03-.79-1.91-1.39-2.76-1.91C131.26.91,128.15-.05,125.05,0c-.82,0-1.67.06-2.54.2-.08.01-.15.07-.18.16-.33,1.09-.6,2.51-.81,4.37-.82,7.85,1.11,18.46,8.98,24.67ZM127.99,5.55c.39-.36.87-.55,1.35-.55.28,0,.56.06.83.2,2.73,1.35,5.25,8.24,4.65,12.71-.17,1.25-.67,2.81-2.11,3.09l-.14.02c-1.66.07-3.37-1.73-4.61-4.77-1.55-3.81-1.97-8.86.04-10.7Z"/>
    </g>
  </g>
</svg>