<?xml version="1.0" encoding="UTF-8"?>
<svg id="Layer_2" data-name="Layer 2" xmlns="http://www.w3.org/2000/svg" viewBox="0 0 486.69 481">
  <defs>
    <style>
      .cls-1 {
        fill: #fff;
      }
    </style>
  </defs>
  <g id="Layer_1-2" data-name="Layer 1">
    <g>
      <path class="cls-1" d="M273.31,380.02h-.03l-47.14-.14-2.37-.99-2.63-2.73-.71-1.47-.66-3.54.02-16.79-.44-.9-12.63-4.01c-1.35-.64-2.72-1.26-4.03-1.85-3.43-1.54-6.97-3.14-10.14-5.22l-13.76,13.67c-6.44,4.29-10.59-.04-14.61-4.24-1.58-1.65-3.21-3.35-4.95-4.5l-.08-.08-.89-1.42-2.09-2.05-1.19-.67-.92-1.48c-2.31-2.35-4.73-4.63-7.08-6.84-4.19-3.95-8.53-8.03-12.31-12.57l-.05-.08-.78-2.36c-.41-3.12.23-5.23,2.36-7.84l12.03-11.99.15-1.57c-3.85-7.2-6.91-14.08-9.35-21.02-.23-.65-.39-1.34-.55-2.01-.31-1.33-.61-2.58-1.39-3.63l-8.02-.26-3.08.56-7.34-.15-2.55-.68-2.43-1.36-1.26-1.45-1.44-2.85-.26-1.31.11-47.22,2.31-4.18,3.91-2.05,12.54-.08,2.62-.56h5.29c2.27-9.84,6.79-19.15,10.88-27.13l-13.7-13.84c-.62-.92-1.24-2.53-1.37-3.57-.52-3.93.93-5.61,2.77-7.73.56-.65,1.14-1.32,1.74-2.12l.07-.07,1.07-.65.92-1.43,28.25-27.9.03-.02c3.26-1.87,6.35-1.81,9.72.19l.05.04,13.38,13.25,1.05.16c7.78-4.9,16.29-8.09,26.66-11.36l.33-20.52,1.55-2.85,1.66-1.59,1.76-.94,3.83-.96h44.1s2.98.83,2.98.83l2.67,1.68,1.91,2.93.79,3.47.03,17.86,11.6,3.63,15.63,7.34.91-.44,13.38-13.38,4.02-1.4c2.92-.21,5.41,1.5,7.26,3.01,1.28,1.04,2.5,2.46,3.68,3.83.8.93,1.55,1.8,2.3,2.54,3.02,3,6.18,6.03,9.23,8.96,5.32,5.11,10.81,10.4,16,15.86l.04.05,1.8,3.02v4.66s-1.63,3.29-1.63,3.29l-13.32,13.56c5.33,9.66,9.05,18.56,11.36,27.18l19.46.08,2.06.65,2.3,1.51,1.97,2.86.98,3.3-.13,46.09-1.52,3.38c-1.2,1.33-2.6,2.67-4.67,3.37h-.08s-19.25.1-19.25.1l-.89.44c-2.35,8.39-5.84,17.01-10.66,26.32l.53,1.34c.49.48.87,1.05,1.23,1.61.25.38.5.75.76,1.07,1.17,1.41,2.94,3,4.81,4.68,2.46,2.22,5.01,4.51,6.16,6.42,1.99,3.33,1.55,7.05-1.25,10.47-3.03,3.7-7.17,7.59-11.17,11.35-2.21,2.08-4.29,4.04-6.17,5.94l-.52.53c-1.64,1.66-3.34,3.38-4.94,5.01-.82.84-1.72,1.86-2.67,2.94-2.42,2.75-5.16,5.87-7.78,7.18-1.55.78-3.12,1.45-5.16,1.09-3.76-.66-8.08-5.36-11.88-9.51-1.94-2.12-3.78-4.12-5.32-5.35l-1.07-.16c-7.82,4.85-16.65,7.9-25.18,10.85l-1.47.51-.27,19.55-.65,2.06-1.51,2.31-2.59,1.73-3.03.68ZM226.25,379.35l47.01.14,2.92-.66,2.41-1.64,1.38-2.16.6-1.93.26-19.81,1.82-.63c8.54-2.95,17.37-6,25.16-10.85l.08-.05,1.39.21.05.04c1.59,1.24,3.46,3.28,5.44,5.45,3.75,4.09,7.99,8.72,11.58,9.35,1.72.3,3.03-.14,4.84-1.04,2.52-1.26,5.23-4.34,7.62-7.06.96-1.09,1.86-2.11,2.69-2.96,1.61-1.64,3.31-3.36,4.95-5.01l.52-.53c1.88-1.91,3.97-3.87,6.18-5.95,3.99-3.75,8.12-7.64,11.13-11.3,1.88-2.29,3.61-5.86,1.21-9.87-1.1-1.84-3.62-4.11-6.06-6.3-1.88-1.7-3.67-3.3-4.86-4.74-.29-.35-.55-.74-.8-1.12-.36-.55-.73-1.11-1.2-1.56l-.06-.09-.64-1.61.06-.11c4.86-9.36,8.36-18.01,10.71-26.44l.03-.11,1.21-.6,19.33-.09c1.92-.67,3.24-1.92,4.38-3.18l1.41-3.18.13-45.94-.94-3.15-1.88-2.71-2.15-1.4-1.93-.6-19.75-.07-.05-.19c-2.3-8.7-6.05-17.67-11.45-27.43l-.09-.17,13.56-13.81,1.51-3.07v-4.39s-1.7-2.87-1.7-2.87c-5.18-5.44-10.66-10.72-15.97-15.82-3.05-2.93-6.21-5.97-9.23-8.97-.76-.76-1.52-1.64-2.33-2.57-1.17-1.36-2.37-2.76-3.61-3.77-1.88-1.53-4.16-3.07-6.86-2.89l-3.81,1.33-13.4,13.38-1.17.57-15.83-7.43-11.93-3.73-.03-18.22-.77-3.33-1.82-2.76-2.51-1.55-2.8-.78h-44s-3.7.94-3.7.94l-1.64.88-1.55,1.49-1.42,2.63-.33,20.77-.18.06c-10.45,3.29-19,6.49-26.8,11.41l-.08.05-1.41-.21-.06-.06-13.41-13.28c-3.17-1.86-6.08-1.92-9.14-.18l-28.18,27.83-.93,1.47-1.14.69c-.6.8-1.17,1.47-1.73,2.11-1.82,2.1-3.14,3.62-2.65,7.32.13.95.71,2.49,1.26,3.3l13.93,14.07-.09.17c-4.12,8.04-8.71,17.45-10.97,27.37l-.05.2h-5.68s-2.61.56-2.61.56l-12.44.08-3.66,1.91-2.17,3.92-.12,47.03.25,1.23,1.38,2.72,1.17,1.34,2.29,1.27,2.43.64,7.2.14,3.08-.56h.03s8.29.27,8.29.27l.08.1c.91,1.16,1.24,2.57,1.56,3.93.15.65.31,1.33.53,1.95,2.45,6.94,5.51,13.81,9.36,21.01l.04.07-.19,1.92-12.15,12.1c-2.01,2.46-2.62,4.46-2.24,7.37l.76,2.26c3.76,4.51,8.07,8.56,12.23,12.49,2.36,2.22,4.79,4.51,7.11,6.87l.04.05.87,1.39,1.16.66,2.17,2.15.87,1.4c1.78,1.18,3.41,2.89,5,4.54,4.04,4.22,7.87,8.21,13.9,4.19l14.03-13.94.18.12c3.18,2.12,6.77,3.73,10.24,5.3,1.32.6,2.69,1.21,4.01,1.84l12.81,4.06.59,1.22v.06l-.03,16.8.64,3.45.66,1.34,2.52,2.59,2.13.87ZM268.52,370.07l-3.66-.59h-18.32s-2.62.57-2.62.57h-12.16s-1.49-.92-1.49-.92v-17.4l-.91-2.66-1.42-2.15-2.82-2.3c-1.08-.36-2.17-.71-3.25-1.06-5.57-1.81-11.32-3.68-16.75-6.17-1.07-.49-2.26-1.16-3.51-1.87-3.46-1.95-7.38-4.17-10.5-3.64-4.22.72-8.29,5.18-11.88,9.11-1.9,2.07-3.69,4.03-5.41,5.4l-.17.14-.16-.15c-.63-.57-1.21-1.19-1.78-1.79-.52-.55-1.06-1.12-1.61-1.64-1.97-1.83-3.93-3.77-5.82-5.65-2.67-2.65-5.44-5.39-8.35-7.92l-11.19-11.23,12.22-12.22c.15-.22.31-.45.46-.67.42-.59.84-1.19,1.09-1.85,1.95-5.21-.81-10.18-3.47-14.99-.91-1.65-1.86-3.36-2.58-5.02-1.02-2.36-1.84-5.04-2.63-7.63-.92-3.01-1.87-6.12-3.11-8.62-1.48-2.98-3.49-4.56-7.16-5.6h-18.31v-40.89h18.81l4.32-2.32,2.17-2.93,4.57-14.24,6.95-14.06.89-2.67v-3.01l-1.08-3.01-1.72-2.43-11.05-10.99-.33-.94.37-.98,27.43-27.34.96.28,11.31,11.34,2.48,1.65c5.07,2.38,9.34-.08,13.87-2.68,1.38-.79,2.8-1.61,4.23-2.27,2.33-1.07,4.79-1.97,7.16-2.84,1.87-.68,3.8-1.39,5.66-2.18l.07-.02c4.16-.49,7.42-2.31,9.42-5.26,2.17-3.2,2.7-7.49,1.48-12.08v-.07s0-8.49,0-8.49l.91-1.49h39.99v18.8l3.22,5.24c3.33,1.96,7.13,3.15,10.81,4.31,2.25.71,4.57,1.44,6.78,2.34,3.8,1.54,7.48,3.47,11.04,5.33,1.11.58,2.23,1.16,3.34,1.73h.1c3.22.14,5.77.25,8.52-1.61l12.43-12.31h1.28l.08.08,27.29,27.43-.23,1.55-1.24.66c-1.46,2.23-3.56,4.17-5.59,6.05-4.52,4.17-8.79,8.11-6.12,14.85.87,2.19,2.09,4.4,3.28,6.54,1.21,2.19,2.47,4.45,3.37,6.73,1.16,2.27,1.91,4.92,2.63,7.48,1.67,5.95,3.25,11.56,9.75,13.32h18.3v.25c.12,2.79.06,5.66,0,8.42-.1,4.74-.2,9.64.54,14.33l-.07,16.35-.87,1.01h-16.9c-7.17,1.4-8.79,7.22-10.5,13.39-.51,1.82-1.03,3.7-1.7,5.44-.65,1.67-1.5,3.49-2.32,5.24-.26.56-.52,1.11-.77,1.65-.52,1.12-1.13,2.24-1.79,3.43-1.81,3.27-3.68,6.66-3.32,10.11.43,4.2,4.37,7.82,8.18,11.31,1.82,1.67,3.55,3.25,4.79,4.82l1.83,1.18-28.08,28.64h-1.29l-9.49-9.78-6-4.01-5.47-.03c-1.99.93-3.97,1.98-5.87,2.99-2.6,1.38-5.29,2.8-8.07,3.97-1.53.64-3.69,1.33-5.97,2.05-4.91,1.55-10.46,3.31-12.55,5.45l-2.29,3.86v18.92l-1,.86-1.64.1ZM264.9,368.96l3.65.58,1.41-.09.69-.59v-18.82l2.41-4.06c2.16-2.24,7.81-4.03,12.79-5.61,2.27-.72,4.42-1.4,5.93-2.03,2.76-1.16,5.44-2.58,8.03-3.95,1.93-1.02,3.93-2.08,5.95-3.03l.05-.03,5.74.03,6.2,4.15,9.35,9.64h.85l27.47-28.02-1.39-.91c-1.22-1.55-2.93-3.13-4.75-4.79-3.7-3.39-7.9-7.24-8.35-11.65-.37-3.61,1.54-7.07,3.39-10.42.65-1.18,1.26-2.29,1.77-3.39.25-.53.51-1.09.77-1.65.82-1.75,1.67-3.56,2.31-5.21.67-1.72,1.19-3.59,1.69-5.4,1.68-6.05,3.42-12.3,10.96-13.77h16.7s.58-.69.58-.69l.08-16.11c-.75-4.7-.65-9.62-.55-14.38.06-2.68.11-5.44.02-8.14h-17.9c-6.81-1.83-8.51-7.86-10.15-13.7-.71-2.54-1.45-5.16-2.6-7.41-.9-2.28-2.15-4.52-3.35-6.69-1.19-2.15-2.43-4.37-3.31-6.6-2.8-7.07,1.8-11.32,6.26-15.43,2.03-1.87,4.13-3.81,5.55-6l.04-.06,1.13-.6.15-1.03-27.03-27.17h-.85l-12.31,12.19c-2.93,1.98-5.55,1.87-8.87,1.73l-.27-.04c-1.14-.58-2.27-1.17-3.4-1.76-3.55-1.86-7.22-3.77-11-5.31-2.19-.89-4.5-1.62-6.74-2.32-3.73-1.17-7.58-2.38-10.98-4.39l-.06-.03-3.36-5.48v-18.42h-39.17l-.68,1.11v8.31c1.24,4.73.69,9.16-1.57,12.48-2.09,3.07-5.46,4.97-9.76,5.48-1.86.79-3.79,1.49-5.65,2.17-2.36.86-4.8,1.76-7.12,2.82-1.41.65-2.82,1.46-4.19,2.24-4.44,2.56-9.03,5.2-14.39,2.68l-2.55-1.7-11.25-11.28-.53-.16-27.17,27.08-.23.65.23.65,11,10.94,1.8,2.55,1.12,3.18v3.18s-.93,2.75-.93,2.75l-6.95,14.06-4.61,14.33-2.31,3.09-4.49,2.42h-18.41v39.84h17.9c3.86,1.1,5.96,2.75,7.52,5.89,1.26,2.54,2.22,5.67,3.15,8.7.79,2.58,1.61,5.25,2.61,7.58.71,1.64,1.61,3.26,2.55,4.98,2.72,4.91,5.53,9.99,3.5,15.43-.27.73-.72,1.36-1.16,1.97-.16.22-.32.45-.47.67l-.03.04-11.87,11.87,10.81,10.85c2.91,2.53,5.68,5.28,8.36,7.94,1.89,1.88,3.84,3.81,5.81,5.64.57.53,1.11,1.1,1.64,1.66.51.54,1.04,1.1,1.59,1.61,1.64-1.33,3.36-3.21,5.17-5.2,3.65-4,7.79-8.53,12.18-9.28,3.31-.57,7.31,1.7,10.85,3.7,1.25.71,2.43,1.37,3.47,1.85,5.4,2.48,11.14,4.35,16.69,6.15,1.1.36,2.2.72,3.3,1.08l.08.05,2.94,2.41,1.49,2.27.95,2.82v17.15l1.11.68h11.98s2.62-.55,2.62-.55h18.39Z"/>
      <path class="cls-1" d="M403.25,243.67l-2.78-1.03-.04-.04c-1.23-1.29-1.87-2.88-1.81-4.48.05-1.45.69-2.77,1.83-3.81,1.3-1.18,5.57-2.26,9.34-3.2,1.7-.43,3.3-.83,4.27-1.16,29.66-10.2,53.71-37.83,59.85-68.74,2.69-13.54,2.44-27.07-.73-40.22-3.04-12.61-8.61-24.25-16.55-34.61-16.42-21.43-41.43-34.77-68.62-36.61h-46.1s-.48,1.61-.48,1.61l-.14,2.52c-1.37,4.56-3.07,9.79-5.78,14.23-.84,1.37-3.09,4.59-5.96,4.87-1.44.14-2.82-.47-4.08-1.84-2.99-3.23-.78-6.75,1.17-9.87.7-1.11,1.35-2.16,1.79-3.18,3.47-8.09,3.62-17.16.43-25.54-3.2-8.4-9.36-15.01-17.33-18.62-10.04-4.54-21.73-3.88-31.27,1.75-9.57,5.65-15.56,15.19-16.44,26.16-.93,11.67,4.1,22.78,13.44,29.72,9.59,7.12,21.98,8.77,33.17,4.4l.05-.02,3.71.05,2.28,2.15.9,2.47-.89,3.54-1.76,1.62-2.58,1.16-3.02.61-1.81.84c-17.69,3.64-35.28-3.11-45.91-17.62-4.92-6.71-7.87-14.53-8.54-22.62-.72-8.66,1.25-17.45,5.68-25.41,9.06-16.25,26-24.81,44.22-22.35,8.89,1.2,17.15,4.92,23.89,10.77,7.22,6.26,12.29,14.71,14.67,24.44.08.34.09.74.09,1.16,0,1,.06,1.68.65,1.88l43.98.04,2.11.51,3.68.02,2.11.51c19.72,1.52,38.75,9.66,55.01,23.53.61.52,1.34,1.05,2.05,1.56.89.64,1.81,1.31,2.54,1.99,13.18,12.22,22.63,26.8,28.08,43.32,5.09,15.42,6.39,32.17,3.76,48.43-5.62,34.76-28.34,64.32-60.76,79.07-1.63.74-3.42,1.34-5.16,1.93-2.31.77-4.48,1.51-6.18,2.51l-.08.03-7.8,1.55h-2.13ZM400.77,242.19l2.58.96h1.99s7.71-1.54,7.71-1.54c1.74-1.02,3.93-1.75,6.24-2.53,1.72-.58,3.5-1.18,5.11-1.91,32.26-14.67,54.86-44.08,60.46-78.68,2.62-16.18,1.32-32.84-3.74-48.19-5.42-16.43-14.82-30.93-27.94-43.09-.71-.66-1.62-1.31-2.49-1.95-.72-.52-1.46-1.06-2.08-1.59-16.17-13.8-35.1-21.89-54.75-23.41l-2.12-.51-3.68-.02-2.08-.5-44-.04h-.04c-1.05-.31-1.06-1.47-1.06-2.4,0-.39,0-.76-.07-1.04-2.35-9.62-7.37-17.98-14.5-24.17-6.66-5.78-14.82-9.46-23.62-10.64-18-2.43-34.74,6.03-43.69,22.09-4.39,7.87-6.33,16.55-5.62,25.11.66,7.99,3.58,15.72,8.44,22.35,10.51,14.33,27.88,21.01,45.35,17.42l1.81-.84,3.02-.61,2.46-1.12,1.54-1.43.81-3.23-.8-2.2-2.04-1.92-3.4-.05c-11.34,4.41-23.9,2.73-33.62-4.49-9.49-7.05-14.6-18.34-13.65-30.18.89-11.14,6.97-20.83,16.7-26.57,9.69-5.72,21.56-6.39,31.76-1.78,16.81,7.6,24.51,27.71,17.17,44.84-.45,1.06-1.12,2.12-1.83,3.25-1.94,3.1-3.94,6.3-1.23,9.23,1.14,1.23,2.37,1.8,3.64,1.67,2.64-.26,4.77-3.32,5.57-4.62,2.67-4.38,4.35-9.56,5.72-14.08l.14-2.52.6-2h46.51c27.36,1.83,52.51,15.25,69.02,36.8,7.98,10.42,13.58,22.13,16.64,34.81,3.19,13.22,3.44,26.83.73,40.45-6.18,31.09-30.36,58.88-60.19,69.14-.99.34-2.53.73-4.31,1.17-3.52.88-7.91,1.98-9.11,3.08-1.04.94-1.61,2.13-1.66,3.44-.05,1.43.52,2.87,1.62,4.05Z"/>
      <path class="cls-1" d="M45.17,89.37c-14.27,0-27.5-6.53-36.21-18.11C-.68,58.43-2.64,41.88,3.73,26.99,8.47,15.91,18.35,6.6,29.53,2.69c19.44-6.81,40.92.23,52.25,17.11,4.09,6.09,6.61,12.97,6.94,18.92h134.21c.11,0,.18.05.34.18.45.35.62.4.68.39,0,0,.06-.09.03-.44l-7.86-7.82-.56-1.68.14-2.66c.27-.85.78-1.64,1.53-2.33,3.51-3.24,6.7-.55,9.27,1.62,2.46,2.08,4.82,4.59,7.1,7.02,1.93,2.06,3.93,4.18,5.98,6.05,1.63.87,2.84,2.44,3.22,4.22.35,1.63-.02,3.24-1.04,4.53l-17.61,17.11-1.96.83-2.36.15-.06-.03c-.26-.14-.55-.26-.85-.4-.7-.31-1.42-.63-1.95-1.11-1.15-1.04-1.69-2.28-1.61-3.66.22-3.86,5.27-7.91,7.48-9.5l.93-1.47H89.38l-.6.69-.72,5.61c-.52.92-.78,1.9-1.05,2.94-.18.7-.37,1.42-.65,2.12-1.66,4.17-4.31,9.9-8.06,11.4-1.3.52-2.63.48-3.95-.13-5.01-3.4-2.85-6.9-.76-10.29.59-.95,1.2-1.94,1.64-2.92,6.68-14.69,2.97-30.67-9.46-40.71-12.33-9.96-28.57-10.25-41.36-.75-12.24,9.09-16.58,24.35-11.06,38.89,5.45,14.35,18.58,22.79,33.45,21.48,2.97.28,5.66-.57,8.25-1.39,1.54-.49,3.13-.99,4.77-1.26h.08s3.04,1.39,3.04,1.39l1.66,2.73v.06c.6,6.52-4.54,7.51-9.51,8.47-1.39.27-2.82.54-4.06.94h-.05c-1.95.25-3.89.37-5.82.37ZM44.62.63c-4.97,0-10.01.83-14.91,2.55-11.04,3.87-20.81,13.07-25.49,24.01C-2.08,41.91-.15,58.27,9.38,70.95c9.76,12.98,25.28,19.54,41.52,17.55,1.27-.4,2.71-.68,4.1-.95,4.95-.95,9.62-1.85,9.1-7.85l-1.51-2.49-2.75-1.27c-1.58.27-3.13.76-4.62,1.23-2.65.84-5.38,1.7-8.41,1.41-15.06,1.33-28.4-7.24-33.94-21.82-5.61-14.76-1.2-30.26,11.24-39.49,12.99-9.65,29.48-9.35,42,.76,12.62,10.19,16.39,26.42,9.6,41.33-.46,1.01-1.07,2.01-1.67,2.98-2.14,3.47-3.98,6.47.57,9.56,1.15.52,2.34.56,3.5.09,3.97-1.59,6.83-8.75,7.76-11.11.27-.67.45-1.37.63-2.06.27-1.01.54-2.06,1.08-3.02l.7-5.62.86-1h135.58l-1.53,2.39c-2.13,1.53-7.09,5.48-7.3,9.14-.07,1.22.41,2.31,1.44,3.24.46.42,1.15.72,1.81,1.02.28.12.56.25.81.38l2.17-.14,1.74-.76,17.51-17.02c.9-1.14,1.24-2.6.92-4.07-.35-1.64-1.46-3.09-2.98-3.88l-.05-.04c-2.08-1.88-4.09-4.03-6.04-6.1-2.27-2.42-4.62-4.93-7.06-6.98-3.06-2.59-5.64-4.35-8.57-1.63-.67.62-1.13,1.31-1.37,2.07l-.12,2.47.49,1.47,7.91,7.86v.09c.05.36.07.86-.28,1.05-.4.23-.91-.17-1.25-.43-.04-.03-.07-.05-.09-.07H88.22v-.25c-.28-5.92-2.78-12.81-6.88-18.91C73.01,7.66,59.11.63,44.62.63Z"/>
      <path class="cls-1" d="M189.66,481c-6.44,0-12.9-1.33-18.83-3.95-10.68-4.71-18.91-13.43-23.15-24.57-4.23-11.1-3.97-23.14.73-33.91,6.86-15.71,21.15-25.66,38.24-26.64,17.07-.98,33,7.62,41.58,22.42,2.87,4.96,4.89,11.6,5.17,17.01h133.94c-1-1.26-2.23-2.54-3.57-3.74-.52-.46-1.11-.88-1.67-1.29-1.81-1.3-3.69-2.65-3.78-5.54-.07-2.15.89-3.91,2.63-4.83,2.03-1.08,4.71-.78,6.82.76,1.84,1.34,3.66,3.39,5.43,5.38,1.56,1.76,3.18,3.58,4.79,4.87h0c.4.34.84.69,1.3,1.06,3.82,3.07,9.05,7.27,5.32,12.15l-17.39,16.83-1.73.97-2.65.13-1.83-.44-2.02-1.72-.82-3.46,1.37-3.18,4.47-4.54,2.82-2.4-1.7.03-4.29-.06-3.1.04-124.31-.02c-.02,1.65-.36,3.34-.66,4.65-.86,3.72-2.62,8.07-4.71,11.64l-.06.1c-1.93,3.3-3.75,6.41-8.25,5.62-.54-.09-2-.91-2.35-1.27-3.17-3.22-1.03-6.55.85-9.49.64-1,1.25-1.94,1.67-2.88,4.23-9.3,4.05-19.99-.48-29.34-4.32-8.9-12.13-15.31-21.44-17.6-12.75-3.13-25.89.96-34.29,10.68-8.38,9.69-10.45,22.72-5.53,34.86,6.98,17.21,26.63,25.19,44.73,18.19l.05-.02,2.66.12,2.09,1.3c1.53,2.18,1.98,4.12,1.34,5.76-1.22,3.11-6.16,4.51-9.77,5.28-3.15.68-6.38,1.02-9.62,1.02ZM189.28,392.39c-.86,0-1.72.02-2.58.07-16.89.96-31.02,10.8-37.79,26.32-4.65,10.64-4.9,22.55-.72,33.51,4.19,11,12.31,19.62,22.87,24.27,8.8,3.88,18.79,4.91,28.12,2.9,3.49-.75,8.26-2.08,9.39-4.96.57-1.45.15-3.21-1.25-5.22l-1.85-1.13-2.42-.11c-4.49,1.73-9.07,2.55-13.53,2.55-13.8,0-26.47-7.86-31.82-21.05-5-12.32-2.9-25.55,5.62-35.4,8.54-9.87,21.88-14.03,34.81-10.85,9.46,2.32,17.4,8.84,21.79,17.88,4.6,9.49,4.78,20.34.48,29.79-.44.97-1.09,1.97-1.71,2.94-1.95,3.04-3.8,5.91-.92,8.84.28.28,1.65,1.05,2.07,1.12,4.14.72,5.79-2.1,7.7-5.37l.06-.1c2.06-3.53,3.8-7.82,4.65-11.5.31-1.35.67-3.11.65-4.79v-.27s124.79.02,124.79.02l3.1-.04,4.48.06,2.83.06-3.74,3.23-4.35,4.43-1.28,2.89.7,3.14,1.86,1.6,1.62.37,2.45-.12,1.59-.9,17.29-16.74c3.39-4.44-1.61-8.46-5.26-11.39-.46-.37-.91-.73-1.31-1.07-1.64-1.32-3.27-3.16-4.84-4.93-1.75-1.97-3.55-4-5.34-5.3-1.95-1.42-4.41-1.7-6.27-.72-1.55.82-2.41,2.41-2.35,4.35.08,2.63,1.77,3.85,3.56,5.13.58.42,1.17.85,1.71,1.33,1.52,1.35,2.89,2.82,3.96,4.23l.32.42h-135.5v-.25c-.24-5.37-2.24-12.05-5.12-17.01-8.04-13.88-22.63-22.23-38.51-22.23Z"/>
      <path class="cls-1" d="M115.75,458.25c-1.77,0-3.37-.77-4.35-2.18-2.98-4.28.2-7.13,3.27-9.89,1.06-.95,2.16-1.94,2.93-2.94l.04-.05,1.35-.65-.43-.53c-.41.18-.92.37-1.49.38-27.81.61-47.53-3.74-65.9-14.52C12.88,405.41-7.19,359.45,2.36,316.1c6.12-25.38,18.66-45.35,37.27-59.36.08-.06,8.46-6.52,17.27-10.82,8.63-4.21,36.86-12.12,42.14-9.78l.07.05,1.67,1.62.98,2.32-.74,3.43-1.95,1.92-2.5.81-3.61.06c-18.76,2.55-35.94,10.17-49.67,22.03-12.91,11.15-22.5,25.72-27.75,42.13-5.24,16.38-5.87,33.76-1.83,50.26,4.31,17.61,13.96,33.84,27.9,46.93,4.2,3.94,13.13,9.79,18.83,12.78,16.3,8.54,34.21,11.91,58.01,10.9l-.58-1.17-6.58-6.59-1.07-2.18.09-2.11,1.67-2.99,3.07-1.14,1.42.02,2.97,1.13.68,1.19c3.25,2.56,6.19,5.61,9.03,8.55,1.63,1.69,3.32,3.44,5.05,5.07,1.7.79,2.86,2.22,3.28,4.02.44,1.91-.07,3.98-1.36,5.54l-4.82,4.78c-1.83.88-4.26,3.56-6.61,6.15-2.7,2.98-5.24,5.79-7.16,6.34-.61.18-1.21.26-1.8.26ZM117.98,443.61c-.8,1.03-1.9,2.01-2.96,2.97-3.04,2.73-5.9,5.3-3.19,9.2,1.17,1.68,3.35,2.35,5.57,1.71,1.77-.51,4.39-3.4,6.92-6.19,2.37-2.61,4.82-5.32,6.73-6.25l4.7-4.68c1.17-1.41,1.64-3.31,1.24-5.07-.38-1.66-1.45-2.97-3.02-3.68l-.07-.05c-1.74-1.65-3.45-3.42-5.09-5.12-2.84-2.95-5.78-5.99-9.02-8.54l-.07-.08-.61-1.07-2.75-1.04h-1.23l-2.75,1.03-1.52,2.72-.08,1.86.99,2.02,6.58,6.58.96,1.93-.4.02c-24.1,1.07-42.2-2.31-58.68-10.94-5.74-3.01-14.72-8.89-18.95-12.86-14.01-13.16-23.71-29.48-28.05-47.19-4.06-16.6-3.43-34.07,1.84-50.54,5.28-16.5,14.93-31.15,27.91-42.37,13.8-11.93,31.08-19.59,49.97-22.16l3.6-.06,2.27-.75,1.75-1.72.67-3.11-.89-2.11-1.54-1.46c-4.88-2.05-32.41,5.28-41.66,9.79-8.77,4.28-17.1,10.7-17.19,10.76-18.51,13.94-30.99,33.81-37.08,59.06-9.5,43.13,10.47,88.86,48.56,111.21,18.29,10.73,37.92,15.05,65.63,14.45.56-.01,1.08-.23,1.46-.41l.19-.09,1.11,1.36-1.84.89Z"/>
      <path class="cls-1" d="M448.41,480.66l-13.13-.05c-20.29-3.16-36.53-20.7-37.8-40.81-1.18-18.7,8.4-35.32,25.02-43.36,16.88-8.17,36.14-5.35,50.27,7.36l.05.07.63,1.13,3.16,3.16,1.79,2.4c10.17,13.96,10.99,34.05,1.99,48.85-2.05,3.37-4.39,5.22-6.61,5.22h-.04c-1.84-.02-3.49-1.28-4.92-3.75l-.04-.06.1-3.74.05-.07c6.33-8.62,8.34-19.44,5.53-29.68-2.73-9.93-9.71-17.92-19.15-21.92-9.37-3.97-19.96-3.51-29.07,1.28-8.93,4.69-15.19,12.97-17.18,22.7-2.56,12.51,1.63,24.77,11.2,32.8,9.73,8.16,22.75,10.18,34.81,5.41l.05-.02,3.14.07,1.8,1.04,1.24,1.53.69,2.58-.71,2.65-2.28,2.16-6.55,2.43-4.08.64ZM442.3,392.35c-6.59,0-13.25,1.5-19.57,4.56-16.42,7.95-25.89,24.37-24.72,42.86,1.26,19.87,17.3,37.21,37.32,40.33l13.05.05,4.01-.63,6.42-2.39,2.05-1.96.63-2.37-.64-2.39-1.12-1.35-1.58-.89-2.91-.07c-12.23,4.82-25.42,2.76-35.29-5.52-9.72-8.15-13.98-20.6-11.38-33.31,2.02-9.89,8.38-18.29,17.45-23.06,9.24-4.86,20-5.33,29.51-1.3,9.59,4.07,16.68,12.18,19.45,22.26,2.85,10.37.82,21.32-5.56,30.06l-.09,3.42c1.32,2.26,2.81,3.41,4.44,3.43h.04c2.02,0,4.21-1.76,6.16-4.97,8.89-14.63,8.08-34.48-1.97-48.27l-1.78-2.38-3.19-3.2-.63-1.12c-8.67-7.78-19.29-11.81-30.08-11.81Z"/>
      <path class="cls-1" d="M249.97,303.09c-12.56,0-24.9-3.96-35.79-11.51-21.17-14.67-30.53-39.54-24.44-64.89,2.91-12.09,9.08-22.92,17.86-31.33,9.42-9.02,21.46-14.74,34.82-16.54l.04.26-.04-.26c14.43-1.95,29.42,1.68,42.2,10.2,12.76,8.51,21.86,20.91,25.61,34.93,3.58,13.38,2.94,26.92-1.85,39.17-4.45,11.39-12.21,21.22-22.45,28.42-10.23,7.2-22.09,11.18-34.3,11.52-.55.02-1.11.02-1.66.02ZM250.1,178.83c-2.54,0-5.09.17-7.61.51-13.25,1.79-25.19,7.46-34.53,16.4-8.7,8.33-14.83,19.08-17.71,31.07-6.05,25.14,3.24,49.79,24.22,64.34,11.28,7.82,24.12,11.76,37.14,11.39,12.11-.34,23.87-4.29,34.02-11.43,10.15-7.14,17.85-16.89,22.26-28.18,4.74-12.15,5.38-25.58,1.83-38.85-3.72-13.89-12.73-26.19-25.39-34.63-10.44-6.96-22.36-10.63-34.23-10.63ZM250.14,292.62c-14.51,0-28.44-6.1-38.59-17.42-13.76-15.34-17.12-36.59-8.77-55.46,6.84-15.45,21.06-26.61,38.03-29.84,17.05-3.24,33.76,1.73,45.86,13.65,12.96,12.76,18.11,31.17,13.78,49.25-4.29,17.9-17.06,31.85-34.18,37.29-5.35,1.7-10.78,2.53-16.13,2.53ZM250.99,189.45c-3.32,0-6.69.32-10.08.96-16.8,3.2-30.88,14.24-37.65,29.54-8.26,18.67-4.94,39.7,8.68,54.89,13.76,15.35,34.52,20.99,54.17,14.74l.08.25-.08-.25c16.94-5.39,29.59-19.19,33.83-36.91,4.28-17.9-.81-36.12-13.64-48.75-9.57-9.43-22.07-14.47-35.32-14.47Z"/>
    </g>
  </g>
</svg>